<svg width="16" height="16" viewBox="0 0 16 16" fill="none" xmlns="http://www.w3.org/2000/svg">
<path d="M14 12.5833C14.2889 12.5835 14.5667 12.7071 14.7758 12.9287C14.9849 13.1502 15.1093 13.4526 15.1231 13.7733C15.137 14.0939 15.0394 14.4082 14.8504 14.651C14.6614 14.8938 14.3956 15.0465 14.108 15.0775L14 15.0833H2C1.71109 15.0832 1.4333 14.9595 1.22421 14.738C1.01512 14.5165 0.890741 14.214 0.876857 13.8934C0.862973 13.5728 0.960644 13.2585 1.14963 13.0157C1.33862 12.7728 1.60444 12.6201 1.892 12.5892L2 12.5833H14ZM14 6.74999C14.2984 6.74999 14.5845 6.88169 14.7955 7.11611C15.0065 7.35053 15.125 7.66847 15.125 7.99999C15.125 8.33151 15.0065 8.64945 14.7955 8.88387C14.5845 9.11829 14.2984 9.24999 14 9.24999H2C1.70163 9.24999 1.41548 9.11829 1.2045 8.88387C0.993526 8.64945 0.875 8.33151 0.875 7.99999C0.875 7.66847 0.993526 7.35053 1.2045 7.11611C1.41548 6.88169 1.70163 6.74999 2 6.74999H14ZM14 0.916656C14.2984 0.916656 14.5845 1.04835 14.7955 1.28277C15.0065 1.51719 15.125 1.83514 15.125 2.16666C15.125 2.49818 15.0065 2.81612 14.7955 3.05054C14.5845 3.28496 14.2984 3.41666 14 3.41666H2C1.70163 3.41666 1.41548 3.28496 1.2045 3.05054C0.993526 2.81612 0.875 2.49818 0.875 2.16666C0.875 1.83514 0.993526 1.51719 1.2045 1.28277C1.41548 1.04835 1.70163 0.916656 2 0.916656H14Z" fill="black"/>
</svg>
