<svg width="120" height="120" viewBox="0 0 120 120" fill="none" xmlns="http://www.w3.org/2000/svg">
<path d="M14.2195 18.5653C16.0614 16.3118 18.1825 14.3268 20.5263 12.6633L19.6325 4.49593L31.8655 0L36.0039 6.94353C38.8264 6.71475 41.6655 6.88112 44.4462 7.43825L49.3129 1.0068L61.0162 6.88276L59.2615 14.8852C61.4128 16.8134 63.3085 19.0348 64.898 21.4902L72.6782 20.5528L76.9655 33.381L70.3441 37.7207C70.5653 40.6773 70.4095 43.6516 69.8806 46.565L76.0137 51.6772L70.3938 63.9238L62.7626 62.0925C60.9231 64.3484 58.8017 66.3337 56.4557 67.9945L57.3496 76.1618L45.1166 80.6577L40.9782 73.7142C38.1584 73.9427 35.3221 73.7763 32.5442 73.2195L27.6775 79.6509L15.9493 73.801L17.704 65.7986C15.5527 63.8703 13.6571 61.649 12.0675 59.1936L4.28736 60.1309L0 47.3028L6.6214 42.9631C6.39597 40.0065 6.55188 37.0316 7.0849 34.1188L0.951826 29.0066L6.57174 16.7599L14.2029 18.5913L14.2195 18.5653ZM22.7197 32.4089C21.2199 35.6775 20.6781 39.3391 21.1629 42.9306C21.6476 46.5222 23.1371 49.8823 25.4429 52.5861C27.7488 55.2899 30.7675 57.2159 34.1172 58.1206C37.4669 59.0253 40.9972 58.868 44.2617 57.6687C47.5262 56.4693 50.3782 54.2817 52.4571 51.3826C54.5359 48.4834 55.7482 45.0029 55.9408 41.3812C56.1333 37.7595 55.2973 34.1593 53.5385 31.0359C51.7798 27.9124 49.1773 25.406 46.0601 23.8336C41.8802 21.7277 37.074 21.448 32.6976 23.0559C28.3211 24.6638 24.7323 28.0279 22.7197 32.4089Z" fill="#928A8A"/>
<path d="M76.0442 71.5743C77.3348 69.9715 78.8159 68.5556 80.4498 67.3626L79.8285 61.5461L88.3798 58.3481L91.2942 63.308C93.2657 63.1485 95.2482 63.2661 97.1909 63.6579L100.58 59.0722L108.747 63.2717L107.516 68.9797C109.024 70.3495 110.351 71.9329 111.458 73.6861L116.903 73.0103L119.897 82.1455L115.288 85.2589C115.449 87.3648 115.339 89.4844 114.96 91.5582L119.253 95.1785L115.288 103.928L109.956 102.612C108.668 104.218 107.187 105.634 105.55 106.824L106.172 112.64L97.6202 115.838L94.7057 110.878C92.7344 111.05 90.7504 110.933 88.809 110.528L85.4202 115.114L77.2416 110.915L78.4729 105.219C76.967 103.846 75.6409 102.263 74.5305 100.512L69.0857 101.176L66.1034 92.0047L70.7462 88.8913C70.5909 86.7853 70.7011 84.6666 71.0738 82.592L66.7812 78.9717L70.7123 70.283L76.0442 71.5863V71.5743ZM81.9974 81.4335C80.9528 83.7602 80.5769 86.3654 80.9174 88.9201C81.2578 91.4748 82.2991 93.8645 83.91 95.7874C85.5208 97.7103 87.6289 99.0802 89.968 99.7241C92.3071 100.368 94.7724 100.257 97.0526 99.4053C99.3327 98.5536 101.325 96.9991 102.779 94.9383C104.233 92.8775 105.083 90.4027 105.221 87.8265C105.359 85.2503 104.779 82.688 103.555 80.4634C102.331 78.2388 100.517 76.4515 98.3432 75.3273C96.8951 74.5785 95.3229 74.1425 93.7167 74.0442C92.1106 73.946 90.5021 74.1875 88.9834 74.7548C87.4648 75.3221 86.066 76.204 84.8672 77.3501C83.6683 78.4962 82.6931 79.8839 81.9974 81.4335Z" fill="#FB6738"/>
</svg>

