<svg width="170" height="170" viewBox="0 0 170 170" fill="none" xmlns="http://www.w3.org/2000/svg">
<rect width="170" height="170" rx="10" fill="#FFF4F0"/>
<path d="M36.417 40.9077C38.5658 38.2485 41.0405 35.9062 43.775 33.9431L42.7321 24.3054L57.004 19L61.8321 27.1936C65.1251 26.9237 68.4373 27.12 71.6814 27.7774L77.3593 20.1881L91.0132 27.1219L88.9661 36.5651C91.4759 38.8405 93.6875 41.4618 95.5419 44.3593L104.619 43.2531L109.621 58.3909L101.896 63.5119C102.154 67.0008 101.972 70.5106 101.355 73.9485L108.51 79.9811L101.954 94.4326L93.0506 92.2715C90.9046 94.9336 88.4296 97.2763 85.6926 99.2361L86.7355 108.874L72.4636 114.179L67.6355 105.986C64.3457 106.255 61.0367 106.059 57.7958 105.402L52.118 112.991L38.4351 106.088L40.4822 96.6449C37.9724 94.3694 35.7608 91.7481 33.9063 88.8507L24.8295 89.9568L19.8276 74.8191L27.5526 69.6981C27.2896 66.2092 27.4714 62.6987 28.0933 59.2614L20.9381 53.2289L27.4946 38.7774L36.3976 40.9384L36.417 40.9077ZM46.3339 57.2437C44.5841 61.1009 43.9521 65.4217 44.5176 69.6598C45.0831 73.8979 46.8209 77.863 49.511 81.0536C52.2012 84.2442 55.723 86.517 59.631 87.5846C63.539 88.6521 67.6577 88.4665 71.4663 87.0512C75.2748 85.6359 78.6021 83.0545 81.0275 79.6334C83.4528 76.2123 84.8672 72.1052 85.0918 67.8314C85.3164 63.5577 84.3411 59.3093 82.2892 55.6235C80.2373 51.9377 77.2011 48.9801 73.5644 47.1246C68.6878 44.6396 63.0806 44.3095 57.9748 46.2069C52.8689 48.1043 48.6819 52.074 46.3339 57.2437Z" fill="#928A8A"/>
<path d="M103.839 103.46C105.345 101.569 107.073 99.8982 108.979 98.4905L108.254 91.6267L118.23 87.853L121.631 93.7058C123.931 93.5176 126.244 93.6565 128.51 94.1188L132.464 88.7075L141.992 93.6631L140.556 100.399C142.316 102.015 143.863 103.884 145.155 105.952L151.508 105.155L155 115.935L149.623 119.609C149.811 122.094 149.683 124.595 149.241 127.042L154.249 131.314L149.623 141.638L143.402 140.086C141.9 141.981 140.172 143.652 138.263 145.056L138.987 151.92L129.011 155.694L125.611 149.841C123.311 150.044 120.996 149.905 118.731 149.428L114.778 154.839L105.236 149.884L106.672 143.162C104.916 141.542 103.368 139.674 102.073 137.608L95.7206 138.392L92.2414 127.569L97.658 123.895C97.4768 121.41 97.6053 118.91 98.0402 116.462L93.0321 112.19L97.6184 101.937L103.839 103.475V103.46ZM110.784 115.095C109.566 117.84 109.127 120.914 109.524 123.929C109.921 126.944 111.136 129.764 113.016 132.033C114.895 134.302 117.354 135.918 120.083 136.678C122.812 137.438 125.689 137.307 128.349 136.302C131.009 135.297 133.334 133.463 135.03 131.031C136.726 128.599 137.717 125.679 137.878 122.639C138.039 119.599 137.363 116.575 135.935 113.95C134.507 111.325 132.391 109.216 129.854 107.889C128.165 107.005 126.331 106.491 124.457 106.375C122.583 106.259 120.706 106.544 118.935 107.213C117.163 107.883 115.531 108.924 114.132 110.276C112.734 111.629 111.596 113.266 110.784 115.095Z" fill="#FB6738"/>
</svg>
